<svg width="328" height="54" viewBox="0 0 328 54" fill="none" xmlns="http://www.w3.org/2000/svg">
<g opacity="0.2" clip-path="url(#clip0_641_12427)">
<path d="M195.578 63.59L195.309 63.6926C195.182 63.3764 195.042 63.029 194.892 62.6534C191.669 54.6426 184.123 35.8836 186.661 31.4956C187.84 29.4557 188.24 24.0166 188.56 19.6463C188.75 17.058 188.914 14.8224 189.202 13.8326C189.289 13.5352 189.252 13.3179 189.093 13.1869C188.908 13.0346 188.577 13.017 188.295 13.1244C188.218 13.1538 188.145 13.1926 188.079 13.2405C186.907 14.0974 186.417 16.9454 186.06 19.0249C185.758 20.7855 185.589 21.6897 185.206 21.8356C185.183 21.8446 185.159 21.8506 185.134 21.8538C184.873 21.8898 184.634 21.6037 184.334 20.8972C183.649 19.2837 183.316 16.3229 182.964 13.1881C182.597 9.92059 182.218 6.5416 181.412 4.3076C181.218 3.77086 180.802 3.64983 180.505 3.70874C180.465 3.71684 180.425 3.72839 180.385 3.74353C180.085 3.85784 179.809 4.179 179.802 4.69895C179.802 4.70025 179.81 4.7609 179.822 4.85981C180.197 7.84694 180.796 13.1574 180.596 15.1619C180.532 15.8082 180.441 16.0953 180.275 16.1588C180.257 16.1658 180.237 16.1702 180.217 16.1717C179.846 16.2036 179.59 15.316 178.654 11.5061C178.115 9.31151 177.445 6.58031 176.648 4.02206C176.491 3.52098 176.209 3.1704 175.852 3.03576C175.654 2.96159 175.446 2.96209 175.257 3.03388C175.19 3.05939 175.126 3.09372 175.066 3.13699C174.499 3.54203 174.647 4.14478 175.005 5.36101C175.078 5.60892 175.156 5.87461 175.232 6.15983C175.437 6.93078 175.737 7.94393 176.056 9.01693C177.272 13.1258 178.039 15.8575 177.627 16.3692C177.593 16.411 177.553 16.4407 177.507 16.4581C177.458 16.4769 177.402 16.4807 177.343 16.4683C176.766 16.3459 176.02 14.219 174.848 10.7593C174.05 8.39959 173.224 5.95951 172.661 5.21426C172.495 4.99372 172.249 4.92186 172.011 5.0127C171.97 5.02818 171.93 5.04775 171.891 5.07272C171.57 5.27314 171.297 5.81062 171.578 6.6655L171.979 7.89783C172.501 9.50104 173.348 12.1026 173.356 12.1291C175.307 18.2991 174.614 18.6246 174.386 18.7318C174.378 18.7352 174.37 18.7386 174.363 18.7415C173.343 19.1302 170.98 14.2095 170.514 13.2127C170.129 12.3904 169.805 12.1213 169.376 12.2849C169.354 12.2933 169.331 12.3029 169.308 12.3139C169.154 12.3865 169.052 12.509 169 12.6869C168.657 13.8371 170.31 16.9029 171.768 19.6071C172.296 20.5869 172.795 21.5124 173.215 22.3651C173.737 23.4244 174.315 24.3849 174.927 25.4017C176.208 27.5297 177.533 29.7298 178.36 32.9537C180.223 40.6374 181.623 47.858 183.105 55.5022C183.858 59.3825 184.633 63.3833 185.474 67.442L185.204 67.5449C184.36 63.4725 183.582 59.459 182.828 55.567C181.346 47.9268 179.947 40.7103 178.086 33.0362C177.272 29.8611 175.959 27.6814 174.69 25.5735C174.074 24.5508 173.493 23.5846 172.965 22.513C172.547 21.6658 172.05 20.7428 171.523 19.7659C169.962 16.8694 168.347 13.8748 168.73 12.5904C168.808 12.3257 168.965 12.1366 169.196 12.0277C169.224 12.0142 169.252 12.0025 169.28 11.992C170.117 11.673 170.568 12.647 170.766 13.0704C172.611 17.0129 173.917 18.5818 174.267 18.4486L174.274 18.4454C174.344 18.4127 174.9 17.9616 173.088 12.2315C173.075 12.1923 172.232 9.601 171.711 8.00251L171.31 6.77018C170.969 5.73468 171.334 5.06275 171.75 4.80234C171.805 4.76766 171.861 4.73967 171.918 4.7179C172.268 4.5847 172.637 4.69395 172.88 5.01512C173.474 5.80168 174.271 8.15701 175.115 10.6506C175.932 13.0636 176.948 16.067 177.397 16.1624C177.783 15.8586 176.483 11.4709 175.785 9.11347C175.467 8.03818 175.166 7.02258 174.96 6.24722C174.884 5.96511 174.807 5.70235 174.734 5.45706C174.388 4.28013 174.137 3.42957 174.91 2.87617C174.991 2.81852 175.077 2.77259 175.165 2.7389C175.413 2.64432 175.686 2.64357 175.944 2.74177C176.386 2.9083 176.732 3.32694 176.917 3.92129C177.717 6.48916 178.389 9.2259 178.928 11.425C179.421 13.4299 179.929 15.4994 180.187 15.8296C180.217 15.7572 180.269 15.5745 180.313 15.1283C180.457 13.6883 180.176 9.96116 179.541 4.90246C179.525 4.77101 179.517 4.69823 179.517 4.69447C179.528 4.02084 179.889 3.60267 180.289 3.45008C180.344 3.42933 180.399 3.41314 180.455 3.40237C180.889 3.31562 181.436 3.5262 181.676 4.19265C182.495 6.46381 182.877 9.86257 183.246 13.1495C183.596 16.2594 183.926 19.1966 184.592 20.7656C184.923 21.5453 185.081 21.5471 185.098 21.5449C185.103 21.544 185.108 21.5428 185.112 21.5411C185.342 21.4535 185.59 20.0793 185.781 18.9675C186.168 16.7149 186.65 13.9114 187.922 12.9814C188.009 12.918 188.104 12.8674 188.204 12.8293C188.573 12.6884 189.002 12.7221 189.264 12.938C189.413 13.0614 189.639 13.354 189.472 13.9268C189.194 14.8829 189.032 17.1016 188.844 19.671C188.52 24.0757 188.118 29.5571 186.901 31.6624C184.444 35.9097 192.223 55.2471 195.151 62.5276C195.306 62.9121 195.449 63.2676 195.578 63.59Z" fill="#F3C49F"/>
<path d="M181.619 28.5711L181.08 28.1822C179.306 26.9059 177.295 25.4595 176.718 23.5795C176.459 22.7381 176.682 21.9172 177.261 21.5832C177.311 21.5549 177.362 21.5302 177.417 21.5094C177.986 21.2924 178.832 21.5155 179.737 22.6843C179.737 22.0761 179.867 21.4032 180.187 20.9728C180.398 20.6883 180.663 20.4862 180.943 20.3794C181.248 20.2633 181.571 20.2604 181.863 20.388C182.539 20.6824 182.9 21.5632 182.854 22.8037C182.808 24.0364 182.386 25.7799 181.673 28.3752L181.619 28.5711ZM177.512 21.8035C177.47 21.8194 177.43 21.8383 177.392 21.8601C176.938 22.1223 176.769 22.7889 176.982 23.4815C177.528 25.258 179.495 26.6726 181.231 27.9209L181.459 28.0855C182.133 25.6223 182.531 23.9562 182.574 22.7874C182.614 21.6894 182.319 20.9204 181.763 20.6779C181.535 20.5779 181.279 20.5812 181.036 20.6739C180.804 20.7626 180.582 20.9328 180.404 21.1729C180.046 21.6533 179.967 22.5334 180.045 23.1479L180.121 23.7492L179.794 23.2601C178.877 21.8867 178.037 21.6032 177.512 21.8035Z" fill="#F3C49F"/>
<g opacity="0.4">
<path d="M287.566 105.826L286.925 105.677C286.959 105.392 286.993 105.095 287.029 104.788C288.615 91.1254 292.332 59.1323 299.048 55.4656C302.126 53.7869 306.683 46.8406 310.343 41.2592C312.519 37.9415 314.397 35.0757 315.528 33.9922C315.828 33.7047 315.93 33.4223 315.83 33.155C315.708 32.8217 315.296 32.5257 314.87 32.4267C314.754 32.3998 314.636 32.3883 314.524 32.3939C312.353 32.4996 309.6 35.8731 307.592 38.3357C305.857 40.4645 304.938 41.5461 304.262 41.3891C304.217 41.3788 304.175 41.364 304.132 41.3432C303.705 41.136 303.576 40.5035 303.701 39.229C303.973 36.4301 305.719 32.1429 307.569 27.6051C309.49 22.8907 311.476 18.0151 312.04 14.3071C312.167 13.4796 311.735 12.9877 311.327 12.8181C311.272 12.7952 311.214 12.7763 311.152 12.762C310.723 12.6623 310.16 12.7952 309.769 13.4774L309.682 13.7086C307.974 18.0624 304.847 25.7427 303.091 28.265C302.568 29.0134 302.182 29.4474 301.822 29.3637C301.782 29.3546 301.743 29.3394 301.704 29.317C301.107 28.9888 301.395 27.6441 302.997 21.5171C303.895 18.0878 305.013 13.8192 305.831 9.67287C305.984 8.8941 305.87 8.20527 305.509 7.73334C305.313 7.47625 305.052 7.30411 304.768 7.23823C304.666 7.21454 304.562 7.20447 304.456 7.20894C303.467 7.24615 303.241 8.10896 302.826 10.0576C302.741 10.4575 302.649 10.8864 302.54 11.3387C302.246 12.5575 301.901 14.1886 301.535 15.9151C299.891 23.6738 299.056 26.9676 298.143 27.2816C298.049 27.3133 297.955 27.3193 297.864 27.2983C297.765 27.2754 297.671 27.2208 297.586 27.1378C296.895 26.4539 297.309 23.5651 298.417 17.1342C299.085 13.2574 299.776 9.24892 299.572 7.76315C299.517 7.3687 299.269 7.08588 298.924 7.00568C298.864 6.99187 298.801 6.98383 298.737 6.98254C298.198 6.96782 297.482 7.42337 297.24 8.75491C297.226 8.83028 295.605 17.6278 295.594 17.6886C293.638 27.8283 292.433 27.6434 291.979 27.5746C291.964 27.5723 291.951 27.5691 291.937 27.5659C290.233 27.1715 290.601 19.0718 290.756 16.5824C290.841 15.1984 290.613 14.5834 289.978 14.4361C289.947 14.4289 289.916 14.4229 289.885 14.4182C289.65 14.3829 289.455 14.4462 289.273 14.6183C287.995 15.827 287.955 21.3962 287.919 26.3089C287.906 28.0989 287.894 29.7882 287.829 31.3111C287.749 33.196 287.818 35.0013 287.89 36.9132C288.042 40.9244 288.2 45.0719 286.924 50.1608C283.748 62.1568 280.292 73.1135 276.633 84.7142C274.859 90.335 273.033 96.1234 271.244 102.037L270.601 101.888C272.399 95.9434 274.233 90.1276 276.015 84.4797C279.672 72.888 283.125 61.9392 286.295 49.9662C287.543 44.9898 287.388 40.8976 287.237 36.9414C287.164 35.0137 287.095 33.1937 287.177 31.2764C287.24 29.7677 287.253 28.0845 287.266 26.3031C287.306 20.7452 287.345 15.4973 288.846 14.0775C289.171 13.7699 289.549 13.6462 289.973 13.7101C290.023 13.7179 290.072 13.7274 290.12 13.7385C291.573 14.0758 291.456 15.8552 291.407 16.6316C290.934 24.2464 291.716 26.7847 292.063 26.8651L292.069 26.8666C292.08 26.8679 293.174 26.7696 294.954 17.5401C294.973 17.4376 296.587 8.67905 296.599 8.6144C296.899 6.96165 297.897 6.24476 298.753 6.2681C298.86 6.27087 298.964 6.28422 299.063 6.30717C299.675 6.4493 300.122 6.96056 300.219 7.6578C300.439 9.26313 299.769 13.1513 299.06 17.2679C298.468 20.6941 297.582 25.8335 297.995 26.5659C298.741 25.9336 300.087 19.5832 300.899 15.7528C301.265 14.0205 301.612 12.3847 301.909 11.1558C302.016 10.7101 302.106 10.288 302.19 9.89439C302.588 8.02704 302.903 6.55212 304.433 6.49435C304.593 6.48836 304.75 6.50353 304.903 6.53906C305.328 6.63777 305.717 6.89278 306.009 7.27478C306.503 7.9201 306.666 8.82557 306.469 9.82467C305.646 13.9943 304.526 18.2753 303.625 21.7152C302.879 24.5691 302.109 27.5087 302.061 28.4889C302.171 28.3697 302.335 28.1686 302.57 27.8307C303.822 26.0331 306.195 20.7827 309.081 13.4257C309.163 13.2161 309.213 13.1018 309.215 13.0959C309.756 12.1523 310.599 11.9034 311.289 12.0635C311.383 12.0852 311.472 12.1141 311.558 12.1496C312.248 12.4367 312.864 13.2518 312.686 14.4255C312.108 18.2239 310.104 23.1413 308.165 27.8978C306.338 32.3826 304.612 36.6185 304.35 39.3056C304.234 40.5031 304.399 40.6885 304.405 40.696C304.757 40.7388 306.114 39.0749 307.105 37.8595C309.307 35.1587 312.047 31.7982 314.494 31.6799C314.666 31.6711 314.84 31.6885 315.01 31.728C315.646 31.8756 316.231 32.3309 316.436 32.8874C316.556 33.2142 316.654 33.8626 315.958 34.5307C314.885 35.5594 313.027 38.3947 310.873 41.6763C307.172 47.3222 302.563 54.3476 299.342 56.1057C292.935 59.6016 289.115 92.4952 287.676 104.879C287.638 105.207 287.602 105.523 287.566 105.826Z" fill="#FFAC19"/>
<path d="M294.434 47.5294L293.935 46.3884C292.475 43.0668 290.82 39.3034 291.441 36.2149C291.727 34.7937 292.683 33.8512 293.764 33.9217C293.857 33.9272 293.95 33.9416 294.044 33.9633C294.973 34.1791 295.946 35.1871 296.344 37.4299C296.802 36.6807 297.436 35.9931 298.137 35.7191C298.653 35.519 299.18 35.4814 299.655 35.5918C300.178 35.7131 300.638 36.0114 300.953 36.4667C301.295 36.9585 301.936 38.3619 300.504 40.7398C299.519 42.3724 297.649 44.3498 294.753 47.214L294.434 47.5294ZM293.901 34.6648C293.841 34.6509 293.781 34.642 293.723 34.6382C292.965 34.588 292.286 35.2991 292.071 36.3671C291.499 39.2097 293.171 43.0137 294.515 46.0702L294.644 46.3637C297.32 43.7084 299.058 41.8517 299.968 40.3422C300.813 38.942 300.985 37.6896 300.442 36.9069C300.22 36.5894 299.895 36.3796 299.52 36.2926C299.158 36.2086 298.75 36.2395 298.348 36.3964C297.537 36.7134 296.799 37.7992 296.456 38.6751L295.954 39.9582L295.839 38.5684C295.622 35.9503 294.696 34.8495 293.901 34.6648Z" fill="#FFAC19"/>
</g>
<g opacity="0.5">
<path d="M213.199 90.4557L212.742 90.3292C213.417 84.9199 214.016 79.5942 214.598 74.4255C215.77 64.0034 216.877 54.1589 218.554 43.6376C219.32 39.2059 220.859 36.0883 222.348 33.0728C223.058 31.6344 223.729 30.2756 224.314 28.7928C224.785 27.5975 225.354 26.295 225.957 24.9162C227.616 21.1181 229.497 16.8135 228.924 15.3375C228.839 15.1165 228.703 14.9786 228.498 14.9044C228.472 14.8951 228.446 14.8869 228.421 14.8798C227.853 14.7226 227.455 15.1053 227.036 16.2357C226.305 18.2023 223.828 24.5446 222.425 24.1561C222.414 24.153 222.402 24.1496 222.39 24.1453C222.066 24.0282 221.075 23.6711 223.04 15.1209C223.051 15.0738 224.41 9.37419 224.827 7.62883C225.117 6.42899 224.709 5.76424 224.275 5.54483C224.222 5.5178 224.169 5.49698 224.116 5.48215C223.804 5.39573 223.502 5.51829 223.314 5.81689C222.645 6.88068 221.8 10.2479 220.983 13.5046C219.664 18.7629 218.962 21.2653 218.223 21.4972C218.139 21.5242 218.057 21.5266 217.981 21.5056C217.911 21.4864 217.847 21.4476 217.792 21.3899C217.17 20.7412 217.906 16.9759 219.101 11.3061C219.413 9.82942 219.707 8.43445 219.899 7.37685C219.971 6.98553 220.047 6.61918 220.119 6.27784C220.474 4.58378 220.598 3.81508 219.824 3.36134C219.741 3.31293 219.655 3.27671 219.566 3.25208C219.315 3.18256 219.048 3.20795 218.8 3.32916C218.349 3.54915 218.017 4.04266 217.864 4.71912C217.071 8.24392 216.463 11.9845 215.975 14.9905C215.11 20.3218 214.874 21.4664 214.339 21.472C214.307 21.4722 214.278 21.4685 214.249 21.4605C214.001 21.3918 213.841 21.0102 213.682 20.131C213.203 17.47 213.44 10.2822 213.625 6.23496C213.631 6.09663 213.635 6.01378 213.635 5.99503C213.569 5.31153 213.17 4.96652 212.793 4.86213C212.737 4.84669 212.683 4.83657 212.629 4.83131C212.243 4.7921 211.721 4.99991 211.527 5.71586C210.687 8.8027 210.537 13.3699 210.393 17.7867C210.254 22.0309 210.123 26.0393 209.376 28.2934C209.042 29.2995 208.74 29.7226 208.366 29.707C208.33 29.7059 208.295 29.7006 208.261 29.6912C207.712 29.539 207.385 28.3444 206.789 26.0064C206.093 23.2782 205.14 19.541 203.498 18.5544C203.408 18.5005 203.308 18.4593 203.205 18.4306C202.832 18.3271 202.407 18.3886 202.186 18.6065C202.003 18.7874 201.981 19.0648 202.12 19.431L202.12 19.4313C202.611 20.7239 203.067 23.6961 203.596 27.1388C204.486 32.9405 205.595 40.161 207.382 42.7304C211.252 48.2951 203.146 74.3839 199.685 85.5244C199.564 85.9106 199.451 86.275 199.345 86.6169L198.891 86.4911C199 86.1378 199.117 85.7604 199.243 85.3588C202.384 75.2476 210.729 48.3888 207.01 43.0416C205.153 40.3711 204.035 33.0819 203.135 27.2239C202.612 23.8127 202.159 20.867 201.688 19.6286C201.395 18.8565 201.678 18.4177 201.874 18.2253C202.21 17.8924 202.796 17.788 203.32 17.9331C203.461 17.9721 203.597 18.0291 203.722 18.1044C205.537 19.1946 206.48 22.8952 207.239 25.869C207.57 27.1658 208.07 29.1094 208.369 29.1923C208.374 29.1936 208.379 29.1942 208.384 29.1946C208.385 29.1942 208.587 29.1734 208.937 28.1181C209.659 25.9405 209.788 21.9707 209.926 17.7684C210.072 13.3195 210.222 8.71887 211.078 5.56876C211.336 4.62043 212.065 4.25862 212.673 4.32081C212.749 4.32832 212.826 4.34266 212.903 4.36396C213.466 4.51991 214.013 5.04679 214.102 5.9706C214.102 5.97681 214.1 6.07788 214.092 6.26055C213.78 13.108 213.798 18.1272 214.141 20.0314C214.225 20.499 214.298 20.7405 214.347 20.8632C214.651 20.2307 215.09 17.5245 215.515 14.9004C216.004 11.887 216.613 8.13714 217.411 4.59605C217.599 3.76284 218.024 3.14599 218.61 2.86056C218.955 2.69223 219.33 2.65719 219.68 2.75405C219.806 2.78892 219.928 2.84032 220.045 2.90888C221.165 3.56683 220.918 4.75221 220.574 6.39255C220.504 6.72951 220.428 7.09107 220.358 7.47759C220.164 8.54267 219.869 9.941 219.556 11.4217C218.84 14.8228 217.64 20.5153 218.114 21.018C218.661 20.8258 219.743 16.5158 220.532 13.3685C221.398 9.91884 222.215 6.66062 222.929 5.52524C223.231 5.04696 223.731 4.84695 224.229 4.98495C224.31 5.00728 224.391 5.03852 224.47 5.07906C225.069 5.38134 225.643 6.25276 225.29 7.71216C225.128 8.3931 223.511 15.1679 223.493 15.247C221.655 23.241 222.5 23.6448 222.537 23.6582L222.543 23.6601C222.898 23.7584 224.391 21.996 226.603 16.0418C226.827 15.4388 227.34 14.0504 228.521 14.3775C228.562 14.3888 228.603 14.4019 228.645 14.4174C228.978 14.5381 229.216 14.78 229.354 15.1369C230.009 16.8261 228.163 21.0516 226.378 25.1382C225.778 26.5124 225.211 27.8104 224.743 28.9964C224.15 30.5003 223.474 31.8692 222.759 33.3179C221.288 36.2985 219.765 39.3804 219.014 43.7298C217.34 54.2352 216.233 64.0728 215.061 74.4887C214.478 79.6773 213.877 85.0235 213.199 90.4557Z" fill="#FF7555"/>
<path d="M213.738 38.253L213.619 37.9368C212.324 34.5236 211.535 32.2229 211.325 30.5627C211.023 28.1669 211.998 27.3731 212.431 27.1435C212.829 26.9324 213.285 26.8971 213.73 27.0204C214.136 27.1328 214.533 27.3773 214.864 27.7415C215.34 28.2647 215.6 29.1052 215.688 29.8986C216.791 28.2826 217.927 27.9009 218.733 28.1241C218.812 28.146 218.888 28.1741 218.96 28.2066C219.819 28.5969 220.236 29.6993 219.973 30.8861C219.395 33.5017 216.785 35.6924 214.482 37.6254L213.738 38.253ZM213.614 27.5192C213.278 27.4261 212.936 27.4508 212.641 27.6073C211.921 27.9901 211.614 29.0423 211.796 30.4949C211.993 32.0497 212.731 34.2263 213.939 37.428L214.19 37.2162C216.432 35.3351 218.971 33.2028 219.511 30.7623C219.717 29.8282 219.416 28.9729 218.779 28.683C218.731 28.6609 218.68 28.6424 218.627 28.6278C217.922 28.4324 216.779 28.8893 215.684 30.8341L215.202 31.6883L215.243 30.6845C215.277 29.8582 215.067 28.6973 214.527 28.104C214.258 27.8081 213.939 27.6091 213.614 27.5192Z" fill="#FF7555"/>
</g>
<path d="M86.254 68.6794L85.943 68.6165C86.168 65.0393 86.346 61.5195 86.5184 58.104C86.8666 51.2152 87.1953 44.7079 87.8762 37.7305C88.2025 34.7888 89.0993 32.6747 89.9667 30.6298C90.3805 29.6545 90.7711 28.733 91.0997 27.7338C91.3644 26.9281 91.6895 26.0477 92.034 25.1157C92.9818 22.5503 94.0563 19.6427 93.6139 18.7007C93.5474 18.5596 93.4517 18.4755 93.3121 18.4359C93.2939 18.4308 93.2758 18.4264 93.258 18.4229C92.8799 18.3464 92.6258 18.6156 92.3934 19.3741C91.988 20.6972 90.5997 24.9693 89.6476 24.7774C89.6397 24.7758 89.632 24.7739 89.6242 24.7717C89.4023 24.7093 88.7262 24.5193 89.6812 18.8209C89.6864 18.7897 90.3551 14.9972 90.5599 13.8357L90.5672 13.7943C90.7048 13.0263 90.4056 12.6086 90.1074 12.4842C90.071 12.4689 90.0348 12.4578 89.999 12.4505C89.7882 12.4079 89.5917 12.5015 89.4789 12.7054C89.0767 13.433 88.6532 15.6801 88.244 17.8533C87.5831 21.3621 87.219 23.0354 86.736 23.2208C86.6804 23.2423 86.6255 23.2476 86.574 23.2372C86.527 23.2277 86.4827 23.2051 86.4433 23.1696C86.0011 22.7714 86.3358 20.2683 86.8968 16.4948C87.043 15.512 87.1809 14.5834 87.2655 13.8809C87.2966 13.621 87.3325 13.3776 87.3659 13.1507C87.5318 12.0233 87.5828 11.5137 87.0488 11.2512C86.9915 11.223 86.9321 11.203 86.8719 11.1908C86.7024 11.1565 86.5256 11.1849 86.3655 11.2751C86.0743 11.4395 85.8735 11.7782 85.8001 12.2286C85.4171 14.5761 85.1678 17.0571 84.9675 19.0507C84.6119 22.5884 84.502 23.35 84.1451 23.3778C84.1234 23.3794 84.1024 23.3782 84.0822 23.3741C83.9112 23.3396 83.7928 23.0948 83.6507 22.5268C83.2214 20.8078 83.0801 16.0852 83.0343 13.423C83.0327 13.3262 83.0319 13.268 83.0313 13.2549C82.9585 12.8098 82.6781 12.6014 82.4227 12.5498C82.3854 12.5422 82.3485 12.538 82.313 12.5369C82.0537 12.5283 81.7153 12.688 81.6155 13.1657C81.1839 15.2287 81.2743 18.2319 81.3612 21.1364C81.4452 23.9266 81.5243 26.5619 81.1196 28.0744C80.9388 28.7503 80.755 29.0413 80.5046 29.048C80.4811 29.0484 80.458 29.0465 80.4353 29.042C80.063 28.9667 79.7932 28.1981 79.2985 26.6899C78.7213 24.9311 77.9305 22.5221 76.795 21.9484C76.7322 21.9167 76.664 21.894 76.5938 21.8798C76.3403 21.8286 76.0613 21.8885 75.9236 22.0411C75.8093 22.1677 75.8059 22.3503 75.9139 22.5841L75.9139 22.5842C76.2952 23.4103 76.7228 25.3401 77.2182 27.5746C78.0532 31.3415 79.0926 36.0293 80.3907 37.6345C83.2029 41.1126 78.8823 58.5926 77.0375 66.0568C76.9744 66.3121 76.9145 66.5543 76.8588 66.7806L76.5489 66.718C76.6066 66.484 76.6686 66.2331 76.7343 65.9675C78.4086 59.1932 82.8564 41.1978 80.1544 37.8565C78.8053 36.1877 77.756 31.4544 76.9131 27.6515C76.4221 25.4374 75.998 23.5251 75.633 22.7338C75.4049 22.2397 75.5761 21.9389 75.6983 21.8038C75.9093 21.5702 76.2965 21.4754 76.6513 21.5471C76.7467 21.5664 76.8397 21.5977 76.9263 21.6416C78.182 22.2758 78.9651 24.6616 79.5943 26.5784C79.868 27.4126 80.2881 28.6686 80.4836 28.7081C80.4875 28.7089 80.4913 28.7091 80.495 28.7093C80.4963 28.709 80.6287 28.6859 80.8182 27.9786C81.2089 26.5176 81.1305 23.9081 81.0475 21.1453C80.9598 18.2195 80.8687 15.1942 81.309 13.0889C81.4416 12.4548 81.9126 12.1846 82.3208 12.1981C82.3712 12.1999 82.4224 12.2059 82.4736 12.2162C82.8562 12.2936 83.245 12.6139 83.3426 13.2174C83.3428 13.2198 83.3462 13.2908 83.3484 13.4189C83.426 17.9223 83.6466 21.2106 83.954 22.4405C84.0289 22.7413 84.0871 22.8964 84.1245 22.975C84.3004 22.5435 84.4808 20.7506 84.6555 19.012C84.856 17.0135 85.1061 14.5264 85.4908 12.1678C85.5816 11.6122 85.8398 11.1884 86.2185 10.9746C86.4414 10.8484 86.6895 10.8092 86.9272 10.8572C87.0126 10.8745 87.0966 10.9029 87.1776 10.9428C87.9529 11.3245 87.8368 12.1137 87.6759 13.2059C87.6431 13.43 87.6075 13.6702 87.5766 13.9266C87.4916 14.6341 87.3532 15.565 87.2069 16.5505C86.8704 18.8129 86.3075 22.5992 86.6435 22.9098C86.9993 22.7593 87.541 19.8836 87.9363 17.7836C88.37 15.4816 88.7797 13.3072 89.2088 12.5304C89.3896 12.2032 89.7134 12.0479 90.0516 12.1163C90.1072 12.1275 90.1632 12.1446 90.2191 12.1679C90.6309 12.34 91.0502 12.8864 90.8755 13.8601L90.8684 13.901C90.7841 14.3796 89.9992 18.8311 89.9901 18.8837C89.0975 24.2098 89.6766 24.4368 89.7016 24.4437L89.7062 24.4448C89.9463 24.4933 90.8682 23.2703 92.0953 19.2657C92.2198 18.8597 92.5107 17.927 93.3073 18.088C93.3344 18.0935 93.3619 18.1002 93.3902 18.1083C93.6171 18.1724 93.7865 18.3209 93.8936 18.5488C94.4006 19.628 93.3457 22.4824 92.3258 25.243C91.9825 26.1719 91.6581 27.0494 91.3955 27.849C91.0628 28.8618 90.669 29.7901 90.2522 30.7722C89.395 32.7935 88.5085 34.8839 88.1883 37.7707C87.5087 44.7368 87.1799 51.2401 86.8321 58.125C86.6588 61.5535 86.4802 65.0869 86.254 68.6794Z" fill="#3CCFB4"/>
<path d="M84.5362 34.777L84.4507 34.5837C83.53 32.5101 82.9602 31.1088 82.7714 30.0799C82.4991 28.5952 83.0737 28.0538 83.3335 27.8902C83.5719 27.7393 83.8533 27.6956 84.1328 27.752C84.3882 27.8037 84.6418 27.939 84.86 28.1514C85.1726 28.4559 85.3632 28.969 85.4458 29.4602C86.0686 28.4017 86.7528 28.1072 87.2609 28.2099C87.3118 28.2202 87.3609 28.2345 87.4081 28.2523C87.9535 28.4566 88.2503 29.1269 88.1302 29.8812C87.8654 31.5442 86.3286 33.036 84.9725 34.3516L84.5362 34.777ZM84.079 28.0716C83.8677 28.0289 83.6575 28.0601 83.4809 28.1718C83.0496 28.4442 82.8967 29.116 83.0616 30.0153C83.2385 30.9787 83.7716 32.3043 84.6315 34.2491L84.7763 34.1079C86.0306 32.8912 87.5915 31.3762 87.8385 29.8255C87.933 29.2321 87.7166 28.7117 87.3124 28.5601C87.2816 28.5484 87.2494 28.5392 87.2158 28.5324C86.7696 28.4422 86.0844 28.7821 85.4767 30.0476L85.2078 30.6074L85.1975 29.9747C85.1892 29.4562 85.0184 28.7409 84.6633 28.3948C84.4864 28.2221 84.2821 28.1127 84.079 28.0716Z" fill="#3CCFB4"/>
<path d="M28.088 73.0856L27.7266 73.192C26.5682 69.9839 25.3924 66.8478 24.2501 63.8006C21.8904 57.5055 19.661 51.5592 17.5668 45.0297C16.7183 42.2539 16.7063 39.9497 16.695 37.7216C16.6896 36.6604 16.6845 35.6583 16.5934 34.6168C16.5193 33.7756 16.4709 32.8401 16.4201 31.8495C16.2801 29.1289 16.1211 26.0444 15.3663 25.4219C15.259 25.3331 15.1472 25.305 15.0147 25.3332C14.9969 25.3371 14.9795 25.3415 14.9628 25.3465C14.6047 25.4519 14.4913 25.8001 14.5736 26.5642C14.7224 27.9391 15.1425 32.4064 14.1682 32.694C14.1613 32.696 14.1545 32.6973 14.1477 32.6994C13.8919 32.7542 13.2133 32.9009 11.8564 27.355C11.8483 27.3217 10.7142 22.5072 10.7045 22.4662C10.5349 21.7371 10.1173 21.511 9.81184 21.539C9.77573 21.5424 9.74106 21.549 9.70816 21.5587C9.51301 21.6161 9.37874 21.7813 9.35755 22.0022C9.27759 22.8329 9.76734 25.0284 10.241 27.1518C11.0268 30.6739 11.3317 32.2592 10.9562 32.6636C10.9102 32.7126 10.8581 32.7457 10.8029 32.7619C10.7519 32.777 10.6983 32.7778 10.6443 32.7636C10.118 32.6234 9.56404 30.8279 8.44157 26.5868C8.1926 25.6451 7.95714 24.7557 7.7611 24.0923C7.68809 23.8457 7.62552 23.6115 7.56764 23.3931C7.28417 22.3288 7.13515 21.859 6.57334 21.8747C6.51326 21.8763 6.45427 21.8858 6.39737 21.9025C6.23739 21.9497 6.09389 22.0543 5.98857 22.2041C5.79568 22.4789 5.74757 22.8648 5.85384 23.2904C6.41915 25.5583 7.15689 27.8827 7.74993 29.7504C8.80844 33.0841 9.00414 33.8187 8.67398 34.0222C8.65273 34.0353 8.63118 34.0451 8.60939 34.0515C8.40684 34.1111 8.17625 33.8872 7.86141 33.4905C6.80377 32.1575 4.8426 28.0173 3.76771 25.668L3.70126 25.5239C3.47309 25.1777 3.15303 25.126 2.91149 25.1972C2.87669 25.2074 2.84348 25.2203 2.81243 25.2351C2.58537 25.344 2.35225 25.6325 2.44399 26.0864C2.85439 28.1203 4.10061 30.7488 5.30519 33.2901C6.46499 35.7363 7.56019 38.0467 7.78274 39.5874C7.88431 40.289 7.82651 40.6442 7.58998 40.7745C7.56624 40.7877 7.54185 40.7976 7.51696 40.8049C7.13114 40.9185 6.59042 40.3517 5.55324 39.2357C4.3538 37.9452 2.71099 36.1771 1.47625 36.1985C1.41222 36.1996 1.3459 36.2103 1.28071 36.2295C1.04169 36.2999 0.815442 36.4783 0.754091 36.6682C0.704332 36.8199 0.769121 36.9726 0.946438 37.1215C1.61361 37.6797 2.74968 39.1982 4.06514 40.957C6.2773 43.9147 9.03073 47.5953 10.8177 48.4121C14.718 50.1964 17.6065 67.7853 18.8399 75.2964C18.8676 75.4655 18.8944 75.6287 18.9203 75.7854L18.5601 75.8915C18.5327 75.725 18.5043 75.5514 18.4746 75.3706C17.3564 68.5625 14.3868 50.4787 10.6672 48.7776C8.79674 47.9219 6.0115 44.1989 3.77389 41.2077C2.47265 39.4686 1.34915 37.9662 0.714966 37.4351C0.303727 37.0905 0.34353 36.7277 0.403784 36.5423C0.506569 36.2263 0.82834 35.9523 1.18503 35.8472C1.28054 35.8191 1.37854 35.8032 1.47555 35.8019C2.86658 35.7775 4.50319 37.5385 5.81849 38.9537C6.41016 39.5908 7.22058 40.4627 7.42862 40.4205C7.42305 40.4208 7.51121 40.311 7.41632 39.6537C7.20258 38.1752 6.12005 35.8917 4.97391 33.4743C3.75853 30.9102 2.50192 28.2589 2.08095 26.1756C1.95137 25.5319 2.28084 25.0577 2.66498 24.8733C2.71272 24.8505 2.76291 24.8313 2.81479 24.816C3.20187 24.702 3.68712 24.8082 4.01741 25.3119C4.01875 25.3145 4.0496 25.3761 4.10132 25.4892C5.91784 29.4592 7.39208 32.2808 8.14593 33.2308C8.2873 33.4094 8.38547 33.5141 8.45111 33.5766C8.39928 33.0355 7.89128 31.4357 7.39867 29.8832C6.80383 28.0099 6.06366 25.6785 5.49529 23.398C5.35915 22.8519 5.42943 22.3443 5.69347 21.9686C5.84995 21.7462 6.06431 21.5906 6.30352 21.5202C6.38924 21.4949 6.47815 21.4806 6.56878 21.4781C7.43859 21.4537 7.65275 22.2593 7.92467 23.2792C7.98171 23.4942 8.043 23.7248 8.11481 23.9678C8.31255 24.6368 8.54871 25.529 8.79877 26.4734C9.35257 28.5668 10.2712 32.037 10.7101 32.3611C10.9254 31.935 10.2984 29.124 9.87991 27.2494C9.37725 24.9947 8.90214 22.8652 8.98828 21.9675C9.02579 21.5778 9.26762 21.2778 9.6104 21.1768C9.66628 21.1604 9.72473 21.1492 9.78549 21.1438C10.2704 21.0995 10.8539 21.4599 11.0646 22.3647C11.0728 22.4 12.202 27.1932 12.2155 27.2497C13.4503 32.2973 14.0735 32.3115 14.0796 32.3104L14.0827 32.3094C14.2774 32.2521 14.6594 30.817 14.2051 26.6155C14.159 26.1875 14.0528 25.2042 14.863 24.9656C14.8902 24.9576 14.9182 24.9505 14.9473 24.9442C15.1856 24.8933 15.4038 24.9478 15.5959 25.1062C16.482 25.8378 16.6318 28.7444 16.7903 31.8216C16.8412 32.8081 16.8895 33.7402 16.9624 34.5736C17.0554 35.6323 17.0605 36.6432 17.0662 37.7132C17.0773 39.9114 17.0888 42.1844 17.9188 44.8988C20.0094 51.4163 22.2365 57.3579 24.5947 63.648C25.7423 66.7093 26.9241 69.8614 28.088 73.0856Z" fill="#ACACB8"/>
<path d="M13.4987 44.2503L13.3126 44.0658C11.6219 42.3883 10.5257 41.2282 9.9252 40.2625C9.04873 38.8554 9.33715 37.9993 9.50189 37.6972C9.65389 37.4177 9.89096 37.2301 10.1688 37.1483C10.4218 37.0738 10.7085 37.0868 10.9962 37.1994C11.3879 37.3526 11.7596 37.7562 12.0387 38.1991C12.1611 36.8428 12.6456 36.2186 13.1396 36.0731C13.1895 36.0584 13.2393 36.0483 13.289 36.0433C13.8724 35.9826 14.4299 36.534 14.6447 37.3852C15.1113 39.2349 14.3726 41.531 13.7209 43.5563L13.4987 44.2503ZM10.271 37.5683C10.0716 37.627 9.9039 37.7589 9.79761 37.9537C9.53618 38.4343 9.68228 39.1856 10.1985 40.0148C10.7541 40.9073 11.7738 41.9963 13.3361 43.5518L13.3932 43.3745C13.993 41.5108 14.7392 39.1907 14.3099 37.4875C14.1482 36.848 13.7501 36.4312 13.3416 36.4742C13.3105 36.4774 13.279 36.4836 13.2474 36.4929C12.8235 36.6178 12.3687 37.2956 12.3608 38.8769L12.3567 39.7168L12.0308 38.9516C11.8087 38.4297 11.3636 37.7881 10.9106 37.6109C10.6859 37.5233 10.4637 37.5115 10.271 37.5683Z" fill="#ACACB8"/>
<path d="M115.831 27.313C115.936 27.3601 116.06 27.3285 116.137 27.2257C117.39 25.5356 118.44 23.8598 119.327 22.2738C120.297 21.5641 121.413 21.0707 122.555 20.8814C122.871 20.8269 123.189 20.7926 123.508 20.7819L123.587 20.8967L123.775 21.1464C123.904 21.3085 124.043 21.4653 124.193 21.6094C124.495 21.8963 124.836 22.126 125.215 22.2974C125.59 22.4632 126.037 22.5456 126.471 22.3872C126.903 22.2383 127.271 21.8052 127.352 21.2912C127.451 20.7788 127.235 20.2283 126.873 19.9367C126.758 19.8405 126.636 19.7656 126.51 19.7089C126.238 19.5868 125.945 19.5463 125.668 19.5449C125.263 19.5524 124.853 19.6366 124.479 19.8007C124.29 19.8816 124.112 19.9826 123.939 20.0904L123.685 20.261L123.56 20.3517L123.533 20.3738C123.187 20.3934 122.843 20.4374 122.503 20.5048C121.839 20.6345 121.19 20.8551 120.576 21.1596C120.258 21.317 119.949 21.493 119.65 21.6907C120.399 20.3076 121.012 19.0134 121.513 17.8555C122.368 16.8846 123.432 16.1144 124.579 15.6617C124.908 15.5297 125.246 15.4264 125.587 15.3449C125.623 15.3735 125.654 15.3936 125.686 15.4316L125.905 15.6296C126.053 15.7622 126.207 15.8921 126.37 16.011C126.531 16.1262 126.702 16.2241 126.882 16.3048C127.072 16.39 127.27 16.4554 127.473 16.5006C127.867 16.5828 128.317 16.5672 128.713 16.3156C129.107 16.0686 129.373 15.564 129.361 15.0565C129.368 14.546 129.081 14.058 128.685 13.836C128.641 13.8109 128.598 13.7887 128.554 13.7688C128.191 13.6062 127.802 13.6132 127.448 13.6788C127.054 13.7673 126.668 13.9255 126.33 14.1691C126.161 14.2881 126.007 14.4276 125.858 14.573C125.786 14.6467 125.714 14.722 125.647 14.8014L125.545 14.921L125.531 14.9405C125.168 15.0364 124.81 15.1552 124.463 15.3049C123.833 15.5736 123.232 15.9288 122.68 16.359C122.381 16.5906 122.098 16.843 121.828 17.1138C122.692 15.016 123.14 13.5036 123.285 12.9724L123.295 12.9655C123.362 12.9134 124.935 11.6683 125.563 9.91797C126.258 7.98181 125.877 6.53935 125.29 5.83491C125.105 5.61425 124.893 5.45088 124.667 5.34949C124.342 5.20389 123.988 5.18517 123.647 5.3066C122.781 5.61398 122.156 6.72747 121.934 8.36211C121.729 9.86623 122.051 11.4298 122.809 12.696C122.679 13.1847 122.017 15.5115 120.567 18.654C120.599 18.4472 120.624 18.2376 120.645 18.0284C120.723 17.1912 120.707 16.3464 120.606 15.515C120.566 15.2425 120.509 14.9726 120.457 14.7025L120.46 14.6986L120.471 14.6641L120.478 14.6399L120.491 14.5915L120.516 14.4955L120.562 14.3029L120.643 13.9151C120.691 13.6547 120.732 13.3913 120.753 13.124C120.771 12.8564 120.776 12.5857 120.759 12.3127C120.738 12.041 120.686 11.774 120.649 11.5031C120.499 10.9823 120.309 10.4254 119.863 10.0531C119.755 9.9581 119.633 9.88027 119.503 9.82187C119.117 9.64869 118.656 9.64448 118.279 9.87557C117.768 10.1582 117.443 10.78 117.436 11.3859C117.404 12.0058 117.665 12.5355 117.95 12.9738C118.249 13.4085 118.601 13.7884 119.006 14.0756C119.206 14.2209 119.412 14.3516 119.624 14.4706L119.944 14.6397L120.007 14.6698C120.078 14.9751 120.145 15.2812 120.199 15.5915C120.316 16.3834 120.351 17.1932 120.295 17.9966C120.249 18.6486 120.141 19.3088 119.957 19.927C119.325 21.1951 118.578 22.559 117.692 23.9718C117.784 23.5536 117.847 23.1318 117.89 22.7041C117.967 21.8678 117.951 21.0226 117.849 20.1912C117.809 19.9181 117.754 19.6485 117.701 19.3791L117.704 19.3745L117.714 19.3402L117.721 19.3161L117.735 19.268L117.76 19.1718L117.806 18.9798L117.887 18.5906C117.935 18.3309 117.975 18.0677 117.996 17.8003C118.015 17.5326 118.02 17.2618 118.003 16.9896C117.982 16.7178 117.93 16.4508 117.893 16.18C117.743 15.659 117.553 15.1011 117.106 14.7292C116.999 14.6339 116.877 14.5567 116.747 14.4983C116.36 14.3247 115.9 14.3202 115.523 14.5519C115.012 14.8342 114.687 15.4566 114.679 16.0615C114.648 16.6819 114.909 17.2117 115.193 17.6499C115.493 18.0847 115.845 18.4649 116.249 18.7513C116.45 18.897 116.656 19.0286 116.868 19.147L117.188 19.3154L117.251 19.3463C117.321 19.6507 117.389 19.9578 117.443 20.2667C117.559 21.0597 117.595 21.8688 117.539 22.6733C117.487 23.4143 117.355 24.1657 117.12 24.8521C116.684 25.5142 116.227 26.1815 115.729 26.8526C115.636 26.9795 115.651 27.1659 115.763 27.2684C115.771 27.2755 115.779 27.2826 115.788 27.2891C115.801 27.2986 115.816 27.3065 115.831 27.313ZM116.172 15.3818C116.101 15.3498 116.017 15.3526 115.944 15.3975C115.815 15.4768 115.767 15.6563 115.836 15.7995L115.838 15.8042L115.852 15.8303C116.031 16.1765 116.223 16.5157 116.392 16.8692C116.54 17.2344 116.726 17.5815 116.843 17.9603C116.959 18.2591 117.047 18.5692 117.131 18.8802L117.034 18.8177C116.843 18.6868 116.657 18.5455 116.48 18.3941C116.12 18.0978 115.816 17.744 115.57 17.3477C115.342 16.9523 115.149 16.511 115.182 16.0768C115.196 15.6493 115.415 15.2561 115.75 15.0721C116.004 14.9285 116.299 14.9262 116.561 15.0434C116.642 15.0799 116.721 15.1284 116.794 15.1882C117.115 15.4338 117.281 15.8892 117.424 16.3288C117.466 16.5654 117.526 16.8014 117.558 17.0424C117.584 17.2834 117.592 17.5315 117.586 17.7819C117.582 18.0316 117.57 18.2839 117.544 18.5357L117.532 18.6355C117.457 18.3418 117.384 18.0479 117.283 17.7639C117.168 17.3638 116.986 16.9973 116.839 16.6124C116.672 16.2386 116.481 15.8799 116.303 15.5126C116.273 15.4508 116.226 15.4062 116.172 15.3818ZM126.329 20.1357C126.431 20.1815 126.526 20.2407 126.608 20.3153C126.857 20.529 126.975 20.8748 126.924 21.2098C126.873 21.5465 126.643 21.8332 126.343 21.9454C126.041 22.0614 125.684 22.0161 125.351 21.8928C125.305 21.8745 125.26 21.8552 125.215 21.835C124.929 21.7068 124.652 21.5294 124.402 21.3203C124.254 21.2005 124.114 21.0682 123.98 20.9265L123.865 20.7983C124.069 20.8034 124.274 20.8007 124.476 20.8276C125.116 20.8834 125.735 21.0806 126.34 21.3001L126.355 21.3055C126.47 21.3478 126.595 21.2765 126.635 21.1475C126.672 21.0237 126.617 20.8914 126.511 20.8437C126.506 20.8416 126.501 20.8396 126.497 20.8374L126.492 20.8353C125.848 20.6209 125.192 20.4326 124.517 20.3921C124.363 20.3764 124.209 20.3877 124.055 20.3834L124.067 20.3769C124.237 20.2927 124.413 20.2213 124.588 20.1592C124.936 20.0308 125.297 19.9824 125.656 19.9948C125.89 20.004 126.125 20.0445 126.329 20.1357ZM118.928 10.7055C118.856 10.6735 118.773 10.6765 118.7 10.7217C118.571 10.801 118.522 10.9805 118.592 11.1228L118.595 11.1284L118.608 11.1538C118.787 11.5006 118.98 11.8403 119.149 12.1935C119.296 12.5576 119.482 12.9049 119.6 13.2845C119.714 13.5832 119.803 13.8929 119.887 14.2036L119.791 14.1416C119.598 14.0107 119.413 13.8695 119.236 13.7176C118.877 13.4214 118.572 13.0672 118.326 12.671C118.099 12.2763 117.905 11.8351 117.938 11.4009C117.951 10.9733 118.172 10.5797 118.507 10.3967C118.761 10.2531 119.055 10.2501 119.316 10.3673C119.399 10.4042 119.477 10.453 119.55 10.5128C119.871 10.758 120.037 11.2131 120.18 11.6523C120.222 11.8893 120.283 12.125 120.313 12.3659C120.34 12.6078 120.348 12.8559 120.342 13.1053C120.337 13.3551 120.326 13.6075 120.3 13.8594L120.288 13.9603C120.213 13.6665 120.139 13.3716 120.039 13.088C119.925 12.6877 119.741 12.3211 119.596 11.9361C119.429 11.5625 119.238 11.2035 119.059 10.8363C119.029 10.7743 118.982 10.7298 118.928 10.7055ZM128.368 14.1985C128.406 14.2155 128.442 14.2347 128.478 14.257C128.75 14.4197 128.917 14.7334 128.925 15.0699C128.936 15.4078 128.771 15.7392 128.503 15.9149C128.233 16.0926 127.884 16.1231 127.541 16.0735C127.316 16.0347 127.094 15.9675 126.88 15.8714C126.765 15.8199 126.652 15.7595 126.542 15.6912C126.384 15.5971 126.229 15.4894 126.075 15.3742L125.954 15.2829C126.123 15.2535 126.29 15.2118 126.46 15.1976C127.1 15.1147 127.743 15.1761 128.377 15.2609L128.392 15.263C128.513 15.2793 128.624 15.183 128.64 15.0482C128.654 14.9352 128.597 14.8312 128.506 14.7907C128.489 14.783 128.47 14.7774 128.451 14.775L128.445 14.7741C127.775 14.7019 127.097 14.6585 126.425 14.7632C126.287 14.7787 126.154 14.8191 126.017 14.8442C126.025 14.8371 126.033 14.8296 126.041 14.8227C126.188 14.701 126.345 14.5952 126.503 14.4977C126.814 14.2994 127.158 14.184 127.509 14.1246C127.808 14.0781 128.114 14.0845 128.368 14.1985ZM124.022 5.82085C124.473 8.57973 123.486 11.0994 123.068 12.005C122.523 10.9273 122.292 9.66624 122.458 8.44251C122.649 7.04208 123.139 6.10431 123.801 5.86933C123.874 5.84314 123.948 5.82759 124.022 5.82085ZM124.578 5.96434C124.6 5.97802 124.623 5.98675 124.646 6.00276C124.734 6.0659 124.819 6.14564 124.899 6.24057C125.377 6.81391 125.673 8.02514 125.07 9.70524C124.775 10.5306 124.23 11.2409 123.773 11.7393C124.25 10.5595 124.905 8.38715 124.578 5.96434Z" fill="#F3C49F"/>
<path d="M20.0439 27V26.3355C20.6561 25.4804 21.3441 24.7156 22.1084 24.0388C23.2455 23.0317 24.547 22.2492 25.8052 21.4928C26.4294 21.1173 27.0751 20.7292 27.6904 20.3193C29.9726 18.8 31.3807 17.1743 31.9952 15.3487C32.0958 15.0504 32.1699 14.7343 32.2172 14.4095C31.1395 14.8828 30.2196 15.1124 29.3802 15.1131C29.1334 15.1131 28.8938 15.0926 28.659 15.0537C27.5314 14.8643 26.2368 14.0373 25.885 12.6156C25.633 11.5959 26.002 10.52 26.8718 9.73793C27.5399 9.13665 28.3664 8.81786 29.1558 8.81786C29.5865 8.81786 30.0062 8.9129 30.3831 9.10827C32.0185 9.95507 32.7233 11.9193 32.647 13.7772C36.4189 11.9147 39.427 8.33077 40.7581 4.07498C42.1541 -0.38739 41.6719 -5.47678 39.4678 -9.53918C38.583 -11.1701 37.4096 -12.6927 36.2747 -14.1659C34.1918 -16.87 32.0382 -19.6652 31.6513 -23.1844C31.5475 -24.1275 31.5872 -25.078 31.7554 -26H32.1287C31.956 -25.0945 31.9129 -24.1592 32.0149 -23.2319C32.3893 -19.8295 34.4134 -17.202 36.556 -14.4207C37.7003 -12.935 38.8836 -11.3991 39.7835 -9.74049C42.041 -5.57974 42.5349 -0.367591 41.1054 4.20237C39.7201 8.63042 36.5625 12.3483 32.613 14.2287C32.5647 14.6643 32.4731 15.0887 32.3396 15.4847C31.6956 17.3974 30.2378 19.0897 27.8822 20.6572C27.2602 21.0717 26.6109 21.4625 25.9831 21.84C24.7389 22.5878 23.4524 23.3615 22.3404 24.3461C21.475 25.1124 20.7097 25.996 20.0439 27ZM29.1615 9.21123C28.3884 9.21123 27.632 9.56962 27.1063 10.0429C26.3492 10.724 26.0253 11.6474 26.2393 12.5126C26.5482 13.762 27.7054 14.492 28.7148 14.661C28.9301 14.6973 29.1507 14.7151 29.3782 14.7151C30.1732 14.7151 31.0531 14.4933 32.0926 14.036C32.1502 14.0109 32.2078 13.9845 32.2651 13.9587C32.3872 12.176 31.7282 10.2448 30.2249 9.46666C29.881 9.28845 29.5194 9.21123 29.1615 9.21123Z" fill="#3CCFB4"/>
<path d="M278.406 53.8574L278.127 53.327C277.279 52.9541 276.409 52.6915 275.515 52.5379C274.184 52.3092 272.817 52.3429 271.495 52.3755C270.839 52.3915 270.161 52.4083 269.497 52.3924C267.038 52.334 265.231 51.7486 263.974 50.6022C263.768 50.4149 263.576 50.2 263.402 49.9648C264.461 49.7974 265.292 49.5154 265.962 49.0913C266.159 48.9665 266.342 48.829 266.513 48.6791C267.334 47.9576 268.02 46.6426 267.704 45.3298C267.477 44.3883 266.73 43.7162 265.708 43.5318C264.922 43.3898 264.128 43.5534 263.498 43.9527C263.154 44.1706 262.859 44.4588 262.64 44.8054C261.691 46.3085 261.953 48.2329 262.794 49.6774C259.001 50.0986 255.095 48.7593 252.245 46.0355C249.257 43.1796 247.505 38.8732 247.559 34.5155C247.58 32.7661 247.877 30.9571 248.165 29.2071C248.692 25.995 249.237 22.6745 248.069 19.6696C247.755 18.8642 247.325 18.1256 246.803 17.4747L246.505 17.6635C247.023 18.299 247.45 19.0238 247.758 19.8156C248.888 22.7209 248.376 25.8421 247.833 29.146C247.544 30.9108 247.244 32.7354 247.222 34.5145C247.167 38.9777 248.961 43.3881 252.022 46.3129C254.987 49.1468 259.068 50.5173 263.01 50.0206C263.232 50.3439 263.483 50.6363 263.756 50.8849C265.073 52.086 266.948 52.6994 269.486 52.7592C270.157 52.7754 270.839 52.7589 271.499 52.7427C272.806 52.7102 274.158 52.6772 275.459 52.9006C276.471 53.0745 277.453 53.3928 278.406 53.8574ZM263.659 44.2696C264.276 43.8786 265.03 43.782 265.649 43.8939C266.539 44.0547 267.185 44.6279 267.378 45.4268C267.656 46.5804 267.038 47.7484 266.304 48.3939C266.147 48.5318 265.978 48.6576 265.797 48.7726C265.162 49.1748 264.367 49.4428 263.345 49.6035C263.288 49.6127 263.231 49.6207 263.175 49.6291C262.329 48.2679 262.044 46.393 262.917 45.0114C263.117 44.6952 263.373 44.4506 263.659 44.2696Z" fill="#3CCFB4"/>
</g>
<defs>
<clipPath id="clip0_641_12427">
<rect width="328" height="54" fill="white"/>
</clipPath>
</defs>
</svg>
